<?xml version="1.0" encoding="UTF-8"?>
<svg id="Layer_2" data-name="Layer 2" xmlns="http://www.w3.org/2000/svg" viewBox="0 0 160.01 157.4">
  <defs>
    <style>
      .cls-1 {
        fill: none;
        stroke: #f4316d;
        stroke-miterlimit: 10;
        stroke-width: 8px;
      }
    </style>
  </defs>
  <g id="Layer_1-2" data-name="Layer 1">
    <path class="cls-1" d="M81.54,153.07l72.2-31.96c1.39-.61,2.28-1.99,2.28-3.5V7.84c0-3.26-3.81-5.03-6.3-2.93l-35.69,30.06c-.69.58-1.57.9-2.47.9h-63.09c-.9,0-1.78-.32-2.47-.9L10.3,4.91c-2.49-2.1-6.3-.33-6.3,2.93v109.76c0,1.52.89,2.89,2.28,3.5l72.15,31.96c.99.44,2.12.44,3.1,0ZM45.23,72.36c.69.58,1.56.9,2.47.9h64.62c.9,0,1.78-.32,2.47-.9l1.76-1.48v21c0,1.48-.85,2.83-2.19,3.46l-32.7,15.52c-1.04.49-2.25.49-3.29,0l-32.71-15.52c-1.34-.63-2.19-1.98-2.19-3.46v-21.01l1.76,1.48Z"/>
  </g>
</svg>